<?xml version="1.0" encoding="UTF-8"?>
<svg width="28px" height="27px" viewBox="0 0 28 27" version="1.1" xmlns="http://www.w3.org/2000/svg" xmlns:xlink="http://www.w3.org/1999/xlink">
    <!-- Generator: Sketch 54.1 (76490) - https://sketchapp.com -->
    <title>Group 9</title>
    <desc>Created with Sketch.</desc>
    <g id="ver2_一幻" stroke="none" stroke-width="1" fill="none" fill-rule="evenodd">
        <g id="Artboard" transform="translate(-326.000000, -46.000000)" fill="#FFFFFF">
            <g id="Group-9" transform="translate(326.500000, 46.000000)">
                <path d="M3.54375,1.71818182 C2.53711023,1.71818182 1.71818182,2.53711023 1.71818182,3.54375 L1.71818182,9.34261364 C1.71818182,10.3492534 2.53711023,11.1681818 3.54375,11.1681818 L9.34261364,11.1681818 C10.3492534,11.1681818 11.1681818,10.3492534 11.1681818,9.34261364 L11.1681818,3.54375 C11.1681818,2.53711023 10.3492534,1.71818182 9.34261364,1.71818182 L3.54375,1.71818182 Z M9.34261364,12.8863636 L3.54375,12.8863636 C1.58969403,12.8863636 0,11.2966696 0,9.34261364 L0,3.54375 C0,1.58969403 1.58969403,0 3.54375,0 L9.34261364,0 C11.2966696,0 12.8863636,1.58969403 12.8863636,3.54375 L12.8863636,9.34261364 C12.8863636,11.2966696 11.2966696,12.8863636 9.34261364,12.8863636 L9.34261364,12.8863636 Z" id="Fill-1"></path>
                <path d="M17.6573864,1.71818182 C16.6507466,1.71818182 15.8318182,2.53711023 15.8318182,3.54375 L15.8318182,9.34261364 C15.8318182,10.3492534 16.6507466,11.1681818 17.6573864,11.1681818 L23.45625,11.1681818 C24.4628898,11.1681818 25.2818182,10.3492534 25.2818182,9.34261364 L25.2818182,3.54375 C25.2818182,2.53711023 24.4628898,1.71818182 23.45625,1.71818182 L17.6573864,1.71818182 Z M23.45625,12.8863636 L17.6573864,12.8863636 C15.7033304,12.8863636 14.1136364,11.2966696 14.1136364,9.34261364 L14.1136364,3.54375 C14.1136364,1.58969403 15.7033304,0 17.6573864,0 L23.45625,0 C25.410306,0 27,1.58969403 27,3.54375 L27,9.34261364 C27,11.2966696 25.410306,12.8863636 23.45625,12.8863636 L23.45625,12.8863636 Z" id="Fill-3"></path>
                <path d="M20.5568182,15.8318182 C17.9514639,15.8318182 15.8318182,17.9514639 15.8318182,20.5568182 C15.8318182,23.1621724 17.9514639,25.2818182 20.5568182,25.2818182 C23.1621724,25.2818182 25.2818182,23.1621724 25.2818182,20.5568182 C25.2818182,17.9514639 23.1621724,15.8318182 20.5568182,15.8318182 M20.5568182,27 C17.0040477,27 14.1136364,24.1095886 14.1136364,20.5568182 C14.1136364,17.0040477 17.0040477,14.1136364 20.5568182,14.1136364 C24.1095886,14.1136364 27,17.0040477 27,20.5568182 C27,24.1095886 24.1095886,27 20.5568182,27" id="Fill-5"></path>
                <path d="M3.54375,15.8318182 C2.53711023,15.8318182 1.71818182,16.6507466 1.71818182,17.6573864 L1.71818182,23.45625 C1.71818182,24.4628898 2.53711023,25.2818182 3.54375,25.2818182 L9.34261364,25.2818182 C10.3492534,25.2818182 11.1681818,24.4628898 11.1681818,23.45625 L11.1681818,17.6573864 C11.1681818,16.6507466 10.3492534,15.8318182 9.34261364,15.8318182 L3.54375,15.8318182 Z M9.34261364,27 L3.54375,27 C1.58969403,27 0,25.410306 0,23.45625 L0,17.6573864 C0,15.7033304 1.58969403,14.1136364 3.54375,14.1136364 L9.34261364,14.1136364 C11.2966696,14.1136364 12.8863636,15.7033304 12.8863636,17.6573864 L12.8863636,23.45625 C12.8863636,25.410306 11.2966696,27 9.34261364,27 L9.34261364,27 Z" id="Fill-7"></path>
            </g>
        </g>
    </g>
</svg>