<?xml version="1.0" encoding="UTF-8"?>
<svg width="29px" height="29px" viewBox="0 0 29 29" version="1.1" xmlns="http://www.w3.org/2000/svg" xmlns:xlink="http://www.w3.org/1999/xlink">
    <!-- Generator: Sketch 54.1 (76490) - https://sketchapp.com -->
    <title>MarcoIcon</title>
    <desc>Created with Sketch.</desc>
    <defs>
        <polygon id="path-1" points="0 0 28.9998159 0 28.9998159 28.9998159 0 28.9998159"></polygon>
    </defs>
    <g id="ver2_一幻" stroke="none" stroke-width="1" fill="none" fill-rule="evenodd">
        <g id="Artboard" transform="translate(-457.000000, -44.000000)">
            <g id="MarcoIcon" transform="translate(457.000000, 44.000000)">
                <g id="Group-24">
                    <g id="Group-3">
                        <mask id="mask-2" fill="white">
                            <use xlink:href="#path-1"></use>
                        </mask>
                        <g id="Clip-2"></g>
                        <path d="M26.4192762,28.9998159 L2.58081587,28.9998159 C1.1552127,28.9998159 -0.000184126984,27.844419 -0.000184126984,26.4192762 L-0.000184126984,2.58081587 C-0.000184126984,1.15567302 1.1552127,-0.000184126984 2.58081587,-0.000184126984 L26.4192762,-0.000184126984 C27.8448794,-0.000184126984 28.9998159,1.15567302 28.9998159,2.58081587 L28.9998159,26.4192762 C28.9998159,27.844419 27.8448794,28.9998159 26.4192762,28.9998159" id="Fill-1" fill="#FDBD00" mask="url(#mask-2)"></path>
                    </g>
                    <path d="M5.15790317,11.8718635 C5.15790317,9.29224444 7.2491254,7.20102222 9.82874444,7.20102222 C12.4088238,7.20102222 14.500046,9.29224444 14.500046,11.8718635 C14.500046,14.4514825 12.4088238,16.5427048 9.82874444,16.5427048 C7.2491254,16.5427048 5.15790317,14.4514825 5.15790317,11.8718635" id="Fill-4" fill="#FFFFFF"></path>
                    <path d="M9.82892857,7.74474921 C7.55311905,7.74474921 5.7012619,9.59568571 5.7012619,11.8719556 C5.7012619,14.1477651 7.55311905,15.9996222 9.82892857,15.9996222 C12.1047381,15.9996222 13.9565952,14.1477651 13.9565952,11.8719556 C13.9565952,9.59568571 12.1047381,7.74474921 9.82892857,7.74474921 M9.82892857,17.0864317 C6.95378571,17.0864317 4.61445238,14.7475587 4.61445238,11.8719556 C4.61445238,8.9968127 6.95378571,6.65747937 9.82892857,6.65747937 C12.7040714,6.65747937 15.0434048,8.9968127 15.0434048,11.8719556 C15.0434048,14.7475587 12.7040714,17.0864317 9.82892857,17.0864317" id="Fill-6" fill="#000000"></path>
                    <path d="M7.60333968,11.0964587 C7.60333968,9.34541111 9.02249841,7.92625238 10.773546,7.92625238 C12.523673,7.92625238 13.9428317,9.34541111 13.9428317,11.0964587 C13.9428317,12.847046 12.523673,14.2662048 10.773546,14.2662048 C9.02249841,14.2662048 7.60333968,12.847046 7.60333968,11.0964587" id="Fill-8" fill="#000000"></path>
                    <path d="M14.5,11.8718635 C14.5,9.29224444 16.5912222,7.20102222 19.1708413,7.20102222 C21.7509206,7.20102222 23.8421429,9.29224444 23.8421429,11.8718635 C23.8421429,14.4514825 21.7509206,16.5427048 19.1708413,16.5427048 C16.5912222,16.5427048 14.5,14.4514825 14.5,11.8718635" id="Fill-10" fill="#FFFFFF"></path>
                    <path d="M19.1710714,7.74474921 C16.8952619,7.74474921 15.0434048,9.59568571 15.0434048,11.8719556 C15.0434048,14.1477651 16.8952619,15.9996222 19.1710714,15.9996222 C21.446881,15.9996222 23.2987381,14.1477651 23.2987381,11.8719556 C23.2987381,9.59568571 21.446881,7.74474921 19.1710714,7.74474921 M19.1710714,17.0864317 C16.2959286,17.0864317 13.9565952,14.7475587 13.9565952,11.8719556 C13.9565952,8.9968127 16.2959286,6.65747937 19.1710714,6.65747937 C22.0462143,6.65747937 24.3855476,8.9968127 24.3855476,11.8719556 C24.3855476,14.7475587 22.0462143,17.0864317 19.1710714,17.0864317" id="Fill-12" fill="#000000"></path>
                    <path d="M16.9454365,11.0964587 C16.9454365,9.34541111 18.3645952,7.92625238 20.1156429,7.92625238 C21.8657698,7.92625238 23.2849286,9.34541111 23.2849286,11.0964587 C23.2849286,12.847046 21.8657698,14.2662048 20.1156429,14.2662048 C18.3645952,14.2662048 16.9454365,12.847046 16.9454365,11.0964587" id="Fill-14" fill="#000000"></path>
                    <path d="M15.2282222,18.4534365 C15.5375556,19.9209286 14.5989683,21.3608016 13.1314762,21.6701349 C11.6639841,21.9794683 10.2241111,21.0404206 9.91477778,19.5733889 C9.60544444,18.1058968 10.5440317,16.6655635 12.0115238,16.3562302 C13.4790159,16.0468968 14.9193492,16.9859444 15.2282222,18.4534365" id="Fill-16" fill="#000000"></path>
                    <path d="M6.71686032,20.5311714 C7.87962222,19.9442667 8.53235238,19.8452984 10.4905429,17.2693619 L13.4094159,21.5958857 C13.4094159,21.5958857 11.9884159,22.3130603 6.94701905,21.7731079 C6.29520952,21.7036 6.13179683,20.8266952 6.71686032,20.5311714" id="Fill-18" fill="#000000"></path>
                    <path d="M13.8778349,18.4534365 C13.5685016,19.9209286 14.5075492,21.3608016 15.9750413,21.6701349 C17.442073,21.9794683 18.8824063,21.0404206 19.1917397,19.5733889 C19.501073,18.1058968 18.5624857,16.6655635 17.0949937,16.3562302 C15.6275016,16.0468968 14.1871683,16.9859444 13.8778349,18.4534365" id="Fill-20" fill="#000000"></path>
                    <path d="M22.3896571,20.5311714 C21.2268952,19.9442667 20.5741651,19.8452984 18.6159746,17.2693619 L15.6971016,21.5958857 C15.6971016,21.5958857 17.1181016,22.3130603 22.1594984,21.7731079 C22.8113079,21.7036 22.9747206,20.8266952 22.3896571,20.5311714" id="Fill-22" fill="#000000"></path>
                </g>
            </g>
        </g>
    </g>
</svg>