<?xml version="1.0" encoding="UTF-8"?>
<svg width="30px" height="33px" viewBox="0 0 30 33" version="1.1" xmlns="http://www.w3.org/2000/svg" xmlns:xlink="http://www.w3.org/1999/xlink">
    <!-- Generator: Sketch 54.1 (76490) - https://sketchapp.com -->
    <title>gift</title>
    <desc>Created with Sketch.</desc>
    <defs>
        <polygon id="path-1" points="0 33 31 33 31 0 0 0"></polygon>
    </defs>
    <g id="ver2_一幻" stroke="none" stroke-width="1" fill="none" fill-rule="evenodd">
        <g id="Artboard" transform="translate(-192.000000, -41.000000)">
            <g id="gift" transform="translate(191.000000, 41.000000)">
                <g id="Group-9" transform="translate(0.437500, 0.000000)">
                    <path d="M14,21.1818182 C9.48854545,21.1818182 5.81818182,17.5114545 5.81818182,13 C5.81818182,8.48854545 9.48854545,4.81818182 14,4.81818182 C18.5114545,4.81818182 22.1818182,8.48854545 22.1818182,13 C22.1818182,17.5114545 18.5114545,21.1818182 14,21.1818182 M14,3 C8.486,3 4,7.486 4,13 C4,18.514 8.486,23 14,23 C19.5139091,23 24,18.514 24,13 C24,7.486 19.5139091,3 14,3" id="Fill-1" fill="#FFFFFF"></path>
                    <path d="M14,12.1428571 C13.4485,12.1428571 13,11.7583429 13,11.2857143 C13,10.8130857 13.4485,10.4285714 14,10.4285714 C14.3175,10.4285714 14.6093,10.5537143 14.8005,10.7718571 C15.1321,11.1502857 15.759,11.2268286 16.2007,10.9423429 C16.6423,10.6581143 16.7312,10.1206857 16.3996,9.74225714 C16.0421,9.33434286 15.5507,9.03108571 15,8.86325714 L15,7.85714286 C15,7.38382857 14.5522,7 14,7 C13.4477,7 13,7.38382857 13,7.85714286 L13,8.86171429 C11.836,9.21554286 11,10.1682571 11,11.2857143 C11,12.7036 12.3458,13.8571429 14,13.8571429 C14.5514,13.8571429 15,14.2416571 15,14.7142857 C15,15.1869143 14.5514,15.5714286 14,15.5714286 C13.6824,15.5714286 13.3906,15.4462857 13.1994,15.2281429 C12.8677,14.8496286 12.2407,14.773 11.7992,15.0576571 C11.3576,15.3418857 11.2687,15.8793143 11.6004,16.2577429 C11.9578,16.6656571 12.4492,16.9689143 13,17.1367429 L13,18.1428571 C13,18.6161714 13.4477,19 14,19 C14.5522,19 15,18.6161714 15,18.1428571 L15,17.1382857 C16.1639,16.7844571 17,15.8317429 17,14.7142857 C17,13.2964 15.6542,12.1428571 14,12.1428571" id="Fill-3" fill="#FFFFFF"></path>
                    <path d="M26,12 C26,12.5523 26.4477,13 27,13 C27.5522,13 28,12.5523 28,12 C28,11.4477 27.5522,11 27,11 C26.4477,11 26,11.4477 26,12" id="Fill-5" fill="#FFFFFF"></path>
                    <mask id="mask-2" fill="white">
                        <use xlink:href="#path-1"></use>
                    </mask>
                    <g id="Clip-8"></g>
                    <path d="M24.5625,31 L28.5625,31 L28.5625,29 L24.5625,29 L24.5625,31 Z M18.5625,31 L22.5625,31 L22.5625,29 L18.5625,29 L18.5625,31 Z M12.5625,31 L16.5625,31 L16.5625,29 L12.5625,29 L12.5625,31 Z M5.5625,31 L9.5625,31 L9.5625,29 L5.5625,29 L5.5625,31 Z M2.5625,28 L6.5625,28 L6.5625,26 L2.5625,26 L2.5625,28 Z M8.5625,28 L12.5625,28 L12.5625,26 L8.5625,26 L8.5625,28 Z M14.5625,28 L18.5625,28 L18.5625,26 L14.5625,26 L14.5625,28 Z M20.5625,28 L24.5625,28 L24.5625,26 L20.5625,26 L20.5625,28 Z M29.6801471,27.8035218 L27.0330882,27.8035218 L27.0330882,25.1969416 C27.0330882,24.7171571 26.6380588,24.3280816 26.1507353,24.3280816 L20.4039706,24.3280816 C23.1421765,22.7747335 25.2943235,20.2680723 26.3500588,17.1687616 C26.505,16.7140002 26.2560882,16.2213566 25.7940882,16.0687848 C25.332,15.9157785 24.8318824,16.1611446 24.6769412,16.6163404 C23.0536765,21.381864 18.4407353,24.532003 13.3049118,24.317829 C7.14105882,24.0607333 2.259,18.9794659 2.32791176,12.9048309 C2.39788235,6.73531627 7.51632353,1.73772011 13.7977941,1.73772011 C18.7337647,1.73772011 23.1057353,4.83694393 24.6769412,9.44963508 C24.8318824,9.90465709 25.3321765,10.1502838 25.7940882,9.9971038 C26.2560882,9.84461886 26.505,9.35197521 26.3500588,8.89712697 C24.5374412,3.57544601 19.4930294,0 13.7977941,0 C6.49985294,0 0.5625,5.84655931 0.5625,13.0329008 C0.5625,17.8552479 3.23620588,22.0741717 7.20044118,24.3280816 L1.44485294,24.3280816 C0.957529412,24.3280816 0.5625,24.7171571 0.5625,25.1969416 L0.5625,28.6723818 C0.5625,29.1522532 0.957529412,29.5412419 1.44485294,29.5412419 L4.09191176,29.5412419 L4.09191176,31.278962 L4.09641176,33 L4.09641176,32.4041358 L4.09641176,30.1450996 L4.09641176,32.4041358 C4.09641176,32.73326 4.36729412,33 4.70161765,33 L29.8517647,33 C30.2568529,32.9213682 30.5625,32.5698274 30.5625,32.1478221 L30.5625,28.6723818 C30.5625,28.1925973 30.1674706,27.8035218 29.6801471,27.8035218 L29.6801471,27.8035218 Z" id="Fill-7" fill="#FFFFFF" mask="url(#mask-2)"></path>
                </g>
            </g>
        </g>
    </g>
</svg>